HIERARCHY
ROOT Hips
{
  OFFSET 267.745 86.9975 -272.335
  CHANNELS 6 Xposition Yposition Zposition Zrotation Xrotation Yrotation
  JOINT LeftUpLeg
  {
    OFFSET 8.64259 1.95398 -2.38835
    CHANNELS 3 Zrotation Xrotation Yrotation
    JOINT LeftLeg
    {
      OFFSET 43.7702 0 0
      CHANNELS 3 Zrotation Xrotation Yrotation
      JOINT LeftFoot
      {
        OFFSET 40.6238 0 0
        CHANNELS 3 Zrotation Xrotation Yrotation
        JOINT LeftToeBase
        {
          OFFSET 12.7242 0 0
          CHANNELS 3 Zrotation Xrotation Yrotation
          End Site
          {
            OFFSET 0 0 0
          }
        }
      }
    }
  }
  JOINT RightUpLeg
  {
    OFFSET -8.2249 1.95398 -2.59336
    CHANNELS 3 Zrotation Xrotation Yrotation
    JOINT RightLeg
    {
      OFFSET 43.5653 0 0
      CHANNELS 3 Zrotation Xrotation Yrotation
      JOINT RightFoot
      {
        OFFSET 40.6238 0 0
        CHANNELS 3 Zrotation Xrotation Yrotation
        JOINT RightToeBase
        {
          OFFSET 12.7242 0 0
          CHANNELS 3 Zrotation Xrotation Yrotation
          End Site
          {
            OFFSET 0 0 0
          }
        }
      }
    }
  }
  JOINT Spine
  {
    OFFSET 0.165834 0.87714 6.61349
    CHANNELS 3 Zrotation Xrotation Yrotation
    JOINT Spine1
    {
      OFFSET 7.38963 1.71661e-005 0
      CHANNELS 3 Zrotation Xrotation Yrotation
      JOINT Spine2
      {
        OFFSET 11.9445 1.14441e-005 0
        CHANNELS 3 Zrotation Xrotation Yrotation
        JOINT Spine3
        {
          OFFSET 14.7254 4.19617e-005 0
          CHANNELS 3 Zrotation Xrotation Yrotation
          JOINT Spine4
          {
            OFFSET 10.9679 0 0
            CHANNELS 3 Zrotation Xrotation Yrotation
            JOINT RightShoulder
            {
              OFFSET 2.46616 -1.6653 3.69651
              CHANNELS 3 Zrotation Xrotation Yrotation
              JOINT RightArm
              {
                OFFSET 13.0012 0 0
                CHANNELS 3 Zrotation Xrotation Yrotation
                JOINT RightForeArm
                {
                  OFFSET 28.7848 1.52588e-005 0
                  CHANNELS 3 Zrotation Xrotation Yrotation
                  JOINT RightHand
                  {
                    OFFSET 26.5688 1.52588e-005 0
                    CHANNELS 3 Zrotation Xrotation Yrotation
                    End Site
                    {
                      OFFSET 0 0 0
                    }
                  }
                }
              }
            }
            JOINT LeftShoulder
            {
              OFFSET 2.38034 -1.29275 -3.7523
              CHANNELS 3 Zrotation Xrotation Yrotation
              JOINT LeftArm
              {
                OFFSET 16.3182 6.10352e-005 0
                CHANNELS 3 Zrotation Xrotation Yrotation
                JOINT LeftForeArm
                {
                  OFFSET 27.0901 0 0
                  CHANNELS 3 Zrotation Xrotation Yrotation
                  JOINT LeftHand
                  {
                    OFFSET 24.5451 1.52588e-005 0
                    CHANNELS 3 Zrotation Xrotation Yrotation
                    End Site
                    {
                      OFFSET 0 0 0
                    }
                  }
                }
              }
            }
            JOINT Neck
            {
              OFFSET 5.0226 -0.0266342 0
              CHANNELS 3 Zrotation Xrotation Yrotation
              JOINT Head
              {
                OFFSET 6.69364 2.86102e-005 0
                CHANNELS 3 Zrotation Xrotation Yrotation
                End Site
                {
                  OFFSET 0 0 0
                }
              }
            }
          }
        }
      }
    }
  }
}
MOTION
Frames:	6
Frame Time:	0.0416667
203.336 34.7737 -202.983 -124.84 -45.8104 -115.626 -119.15 71.566 43.4012 -153.195 18.6254 2.70873 45.8842 -6.72468 56.5028 96.4207 -15.4726 -14.262 -127.112 72.5146 8.54401 -152.756 -29.6609 -2.49747 58.8297 4.83401 8.67988 64.9641 -4.85354 17.3211 0.493229 12.8411 -90.6716 1.19362 0.729843 -1.28408 -10.4778 0.672609 -1.31496 -33.0112 1.082 -1.00541 -12.9985 1.08199 -1.00541 99.5746 -35.2623 -87.0877 9.37572 -36.492 -51.3378 -50.354 3.71891 -75.2837 -15.1108 -1.99947 10.3283 -85.4574 -34.7323 82.8337 -12.9652 22.8518 -66.0655 12.5928 8.59149 -58.6071 5.79292 0.178711 -0.599285 8.06805 0.663047 -3.63799 7.5393 2.34526 9.18929 
203.336 34.7978 -202.974 -124.938 -45.89 -115.72 -119.364 71.6107 43.5334 -153.369 18.5948 2.69264 46.722 -5.56011 55.0224 94.64 -14.9014 -14.3286 -127.805 72.9498 9.09507 -152.75 -29.8698 -2.50671 58.4584 4.64615 7.28294 65.9476 -4.8593 17.6588 0.472627 12.8078 -90.6299 1.26018 0.704199 -1.20451 -10.4111 0.650513 -1.23433 -32.9449 1.03364 -0.937196 -12.9322 1.03364 -0.937219 99.5297 -35.8704 -87.1291 9.04917 -36.9199 -51.114 -50.051 4.13464 -75.5165 -14.909 -2.08035 11.1702 -85.3184 -34.0114 82.9485 -13.4141 23.2018 -65.5125 13.4174 8.87377 -58.7538 6.27965 0.143486 -1.23968 8.20095 0.523228 -6.55579 7.05502 3.08416 12.1903 
203.534 35.1454 -203.142 -125.495 -46.0295 -115.818 -126.893 73.7264 51.4031 -154.409 19.9821 2.54417 56.8526 4.86041 38.8164 80.8254 -7.20861 -1.71646 -130.286 71.9067 11.4982 -152.127 -28.9077 -2.56528 59.5399 5.22943 11.3331 64.9635 -5.01832 16.6142 0.472747 12.8407 -90.6854 1.19429 0.683682 -1.31255 -10.4772 0.625269 -1.34138 -33.0101 1.04652 -1.04644 -12.9974 1.04653 -1.04644 99.4829 -35.9255 -87.2133 9.25011 -36.802 -50.8255 -49.4313 4.17583 -75.5347 -15.666 -2.09594 10.4512 -85.344 -34.026 82.9043 -13.0857 23.4436 -65.6598 15.6647 10.3879 -58.7148 8.37162 0.0746926 -2.63393 7.82367 0.558492 -5.71873 7.54385 2.86891 11.1534 
203.577 35.245 -203.202 -125.553 -46.1015 -115.766 -132.901 74.8552 57.8472 -154.719 21.4812 2.5036 62.1345 8.66367 31.068 74.191 -2.37732 9.35604 -131.299 72.2844 12.4128 -151.963 -29.0266 -2.60187 59.318 5.29441 11.0041 64.7585 -5.12505 16.0673 0.459519 12.8493 -90.6887 1.17692 0.656166 -1.31965 -10.4946 0.597453 -1.34725 -33.0273 1.02242 -1.06148 -13.0146 1.02241 -1.06149 99.3812 -36.0319 -87.3968 9.62077 -36.6003 -50.5566 -47.9683 4.43891 -75.7202 -16.2685 -2.01473 9.2959 -85.2077 -34.0973 83.1694 -13.152 23.3971 -65.8006 15.543 10.2885 -58.8406 7.38213 0.127072 -1.79094 8.21486 0.555812 -5.69566 7.02113 2.81195 10.9793 
203.614 35.3516 -203.158 -124.924 -45.7926 -115.474 -131.21 74.4438 56.5291 -154.576 20.6212 2.6111 62.2064 8.6709 30.8059 74.7684 -2.80375 8.20174 -129.708 72.2632 11.223 -151.828 -29.0708 -2.54231 59.2363 5.15431 10.5785 63.8666 -4.85081 16.8696 0.496523 12.8473 -90.655 1.18124 0.74275 -1.25104 -10.4901 0.686982 -1.28252 -33.0238 1.08438 -0.970015 -13.0111 1.08439 -0.970007 99.5014 -35.9421 -87.1774 9.38729 -36.6578 -50.8866 -49.0735 4.47873 -75.5991 -14.8873 -1.86213 9.4907 -85.2565 -33.8581 83.033 -13.4089 23.2708 -65.8013 15.5495 10.1945 -58.7724 7.16374 0.00915992 -3.17458 8.7421 0.460913 -5.96279 6.52899 2.78372 11.2855 
203.575 35.3155 -203.159 -125.111 -45.7627 -115.59 -132.29 74.5482 57.6958 -154.703 21.3498 2.56763 62.2019 8.62266 31.0008 74.2363 -2.5884 8.86774 -129.964 71.1025 11.3871 -151.787 -28.3277 -2.54836 60.7109 5.52134 14.291 61.2854 -4.94335 15.1399 0.452809 12.8431 -90.6214 1.18957 0.66808 -1.18823 -10.4818 0.61517 -1.21649 -33.0154 0.994303 -0.932535 -13.0027 0.994311 -0.932536 99.2931 -36.1262 -87.5552 9.4704 -36.7394 -50.683 -47.6339 4.61563 -75.7059 -16.3628 -1.9499 8.74327 -85.0717 -34.1042 83.4211 -13.015 23.4095 -65.5304 15.2688 9.87184 -58.9884 7.70844 0.0845351 -2.396 8.11922 0.601835 -5.7726 6.78756 2.83271 10.8449 
